<svg width="1160" height="430" viewBox="0 0 1160 430" fill="none" xmlns="http://www.w3.org/2000/svg" role="img" aria-label="Monthly commit history">
  <rect width="1160" height="430" fill="#0d1117"/>
  <defs>
    <linearGradient id="activity-fill" x1="0" y1="44" x2="0" y2="356" gradientUnits="userSpaceOnUse">
      <stop offset="0" stop-color="#2ea043" stop-opacity="0.42"/>
      <stop offset="1" stop-color="#2ea043" stop-opacity="0.02"/>
    </linearGradient>
  </defs>
  <g font-family="-apple-system, BlinkMacSystemFont, Segoe UI, Helvetica, Arial, sans-serif" font-size="14" font-weight="600" fill="#8b949e">
    <line x1="70" y1="356.00" x2="1126" y2="356.00" stroke="#30363d" stroke-width="1" stroke-dasharray="2 3" /><text x="58" y="360.00" text-anchor="end">0</text><line x1="70" y1="293.60" x2="1126" y2="293.60" stroke="#30363d" stroke-width="1" stroke-dasharray="2 3" /><text x="58" y="297.60" text-anchor="end">10</text><line x1="70" y1="231.20" x2="1126" y2="231.20" stroke="#30363d" stroke-width="1" stroke-dasharray="2 3" /><text x="58" y="235.20" text-anchor="end">20</text><line x1="70" y1="168.80" x2="1126" y2="168.80" stroke="#30363d" stroke-width="1" stroke-dasharray="2 3" /><text x="58" y="172.80" text-anchor="end">30</text><line x1="70" y1="106.40" x2="1126" y2="106.40" stroke="#30363d" stroke-width="1" stroke-dasharray="2 3" /><text x="58" y="110.40" text-anchor="end">40</text><line x1="70" y1="44.00" x2="1126" y2="44.00" stroke="#30363d" stroke-width="1" stroke-dasharray="2 3" /><text x="58" y="48.00" text-anchor="end">50</text>
    <line x1="70.00" y1="44" x2="70.00" y2="356" stroke="#30363d" stroke-width="1" stroke-dasharray="2 3" /><text x="70.00" y="384" text-anchor="middle">2025</text><line x1="128.67" y1="44" x2="128.67" y2="356" stroke="#30363d" stroke-width="1" stroke-dasharray="2 3" /><line x1="187.33" y1="44" x2="187.33" y2="356" stroke="#30363d" stroke-width="1" stroke-dasharray="2 3" /><text x="187.33" y="384" text-anchor="middle">Mar</text><line x1="246.00" y1="44" x2="246.00" y2="356" stroke="#30363d" stroke-width="1" stroke-dasharray="2 3" /><line x1="304.67" y1="44" x2="304.67" y2="356" stroke="#30363d" stroke-width="1" stroke-dasharray="2 3" /><text x="304.67" y="384" text-anchor="middle">May</text><line x1="363.33" y1="44" x2="363.33" y2="356" stroke="#30363d" stroke-width="1" stroke-dasharray="2 3" /><line x1="422.00" y1="44" x2="422.00" y2="356" stroke="#30363d" stroke-width="1" stroke-dasharray="2 3" /><text x="422.00" y="384" text-anchor="middle">Jul</text><line x1="480.67" y1="44" x2="480.67" y2="356" stroke="#30363d" stroke-width="1" stroke-dasharray="2 3" /><line x1="539.33" y1="44" x2="539.33" y2="356" stroke="#30363d" stroke-width="1" stroke-dasharray="2 3" /><text x="539.33" y="384" text-anchor="middle">Sep</text><line x1="598.00" y1="44" x2="598.00" y2="356" stroke="#30363d" stroke-width="1" stroke-dasharray="2 3" /><line x1="656.67" y1="44" x2="656.67" y2="356" stroke="#30363d" stroke-width="1" stroke-dasharray="2 3" /><text x="656.67" y="384" text-anchor="middle">Nov</text><line x1="715.33" y1="44" x2="715.33" y2="356" stroke="#30363d" stroke-width="1" stroke-dasharray="2 3" /><line x1="774.00" y1="44" x2="774.00" y2="356" stroke="#30363d" stroke-width="1" stroke-dasharray="2 3" /><text x="774.00" y="384" text-anchor="middle">2026</text><line x1="832.67" y1="44" x2="832.67" y2="356" stroke="#30363d" stroke-width="1" stroke-dasharray="2 3" /><line x1="891.33" y1="44" x2="891.33" y2="356" stroke="#30363d" stroke-width="1" stroke-dasharray="2 3" /><text x="891.33" y="384" text-anchor="middle">Mar</text><line x1="950.00" y1="44" x2="950.00" y2="356" stroke="#30363d" stroke-width="1" stroke-dasharray="2 3" /><line x1="1008.67" y1="44" x2="1008.67" y2="356" stroke="#30363d" stroke-width="1" stroke-dasharray="2 3" /><text x="1008.67" y="384" text-anchor="middle">May</text><line x1="1067.33" y1="44" x2="1067.33" y2="356" stroke="#30363d" stroke-width="1" stroke-dasharray="2 3" /><line x1="1126.00" y1="44" x2="1126.00" y2="356" stroke="#30363d" stroke-width="1" stroke-dasharray="2 3" /><text x="1126.00" y="384" text-anchor="middle">Jul</text>
    <text x="24" y="200.00" transform="rotate(-90 24 200.00)" text-anchor="middle">Commits</text>
    <text x="1126" y="26" text-anchor="end">Total commits: 210</text>
  </g>
  <path d="M 70.00 331.04 C 79.78 333.12, 109.11 366.40, 128.67 343.52 C 148.22 320.64, 167.78 238.48, 187.33 193.76 C 206.89 149.04, 226.44 61.68, 246.00 75.20 C 265.56 88.72, 285.11 267.60, 304.67 274.88 C 324.22 282.16, 343.78 113.68, 363.33 118.88 C 382.89 124.08, 402.44 272.80, 422.00 306.08 C 441.56 339.36, 461.11 326.88, 480.67 318.56 C 500.22 310.24, 519.78 258.24, 539.33 256.16 C 558.89 254.08, 578.44 289.44, 598.00 306.08 C 617.56 322.72, 637.11 347.68, 656.67 356.00 C 676.22 364.32, 695.78 359.12, 715.33 356.00 C 734.89 352.88, 754.44 337.28, 774.00 337.28 C 793.56 337.28, 813.11 370.56, 832.67 356.00 C 852.22 341.44, 871.78 254.08, 891.33 249.92 C 910.89 245.76, 930.44 322.72, 950.00 331.04 C 969.56 339.36, 989.11 307.12, 1008.67 299.84 C 1028.22 292.56, 1047.78 278.00, 1067.33 287.36 C 1086.89 296.72, 1116.22 344.56, 1126.00 356.00 L 1126.00 356.00 L 70.00 356.00 Z" fill="url(#activity-fill)"/>
  <path d="M 70.00 331.04 C 79.78 333.12, 109.11 366.40, 128.67 343.52 C 148.22 320.64, 167.78 238.48, 187.33 193.76 C 206.89 149.04, 226.44 61.68, 246.00 75.20 C 265.56 88.72, 285.11 267.60, 304.67 274.88 C 324.22 282.16, 343.78 113.68, 363.33 118.88 C 382.89 124.08, 402.44 272.80, 422.00 306.08 C 441.56 339.36, 461.11 326.88, 480.67 318.56 C 500.22 310.24, 519.78 258.24, 539.33 256.16 C 558.89 254.08, 578.44 289.44, 598.00 306.08 C 617.56 322.72, 637.11 347.68, 656.67 356.00 C 676.22 364.32, 695.78 359.12, 715.33 356.00 C 734.89 352.88, 754.44 337.28, 774.00 337.28 C 793.56 337.28, 813.11 370.56, 832.67 356.00 C 852.22 341.44, 871.78 254.08, 891.33 249.92 C 910.89 245.76, 930.44 322.72, 950.00 331.04 C 969.56 339.36, 989.11 307.12, 1008.67 299.84 C 1028.22 292.56, 1047.78 278.00, 1067.33 287.36 C 1086.89 296.72, 1116.22 344.56, 1126.00 356.00" stroke="#2ea043" stroke-width="4" stroke-linecap="round" stroke-linejoin="round"/>
  <circle cx="70.00" cy="331.04" r="4.6" fill="#8b949e" />
<circle cx="128.67" cy="343.52" r="4.6" fill="#8b949e" />
<circle cx="187.33" cy="193.76" r="4.6" fill="#8b949e" />
<circle cx="246.00" cy="75.20" r="4.6" fill="#8b949e" />
<circle cx="304.67" cy="274.88" r="4.6" fill="#8b949e" />
<circle cx="363.33" cy="118.88" r="4.6" fill="#8b949e" />
<circle cx="422.00" cy="306.08" r="4.6" fill="#8b949e" />
<circle cx="480.67" cy="318.56" r="4.6" fill="#8b949e" />
<circle cx="539.33" cy="256.16" r="4.6" fill="#8b949e" />
<circle cx="598.00" cy="306.08" r="4.6" fill="#8b949e" />
<circle cx="656.67" cy="356.00" r="4.6" fill="#8b949e" />
<circle cx="715.33" cy="356.00" r="4.6" fill="#8b949e" />
<circle cx="774.00" cy="337.28" r="4.6" fill="#8b949e" />
<circle cx="832.67" cy="356.00" r="4.6" fill="#8b949e" />
<circle cx="891.33" cy="249.92" r="4.6" fill="#8b949e" />
<circle cx="950.00" cy="331.04" r="4.6" fill="#8b949e" />
<circle cx="1008.67" cy="299.84" r="4.6" fill="#8b949e" />
<circle cx="1067.33" cy="287.36" r="4.6" fill="#8b949e" />
<circle cx="1126.00" cy="356.00" r="4.6" fill="#8b949e" />
</svg>
